<svg width="40" height="40" viewBox="0 0 40 40" fill="none" xmlns="http://www.w3.org/2000/svg">
<rect width="40" height="40" rx="20" fill="white"/>
<path d="M24.9954 9.65189C26.3557 8.49454 25.967 6.56562 24.218 5.98695C22.0803 5.31183 19.7483 6.75851 19.8455 9.2661C20.0398 16.596 20.0398 19.2965 19.9427 27.3979C19.8455 32.4131 16.639 35.3065 13.5296 33.7633C11.5863 32.7989 11.4891 30.2913 13.3353 29.5197" stroke="black" stroke-width="1.5" stroke-linecap="round" stroke-linejoin="round"/>
<path d="M19.6946 10.269C13.3653 11.6651 10.0248 17.2494 11.6072 22.6591C12.1067 24.367 13.4145 26.4812 16.2026 27.6504" stroke="black" stroke-linecap="round" stroke-linejoin="round"/>
<path d="M19.7631 29.7092C26.1596 28.6636 29.8024 23.2717 28.5202 17.783C28.1154 16.0503 26.926 13.8672 24.2065 12.5464" stroke="black" stroke-linecap="round" stroke-linejoin="round"/>
<path d="M16.8018 17.873C19.2635 19.3857 20.553 21.0146 23.1319 22.4109" stroke="black" stroke-linecap="round" stroke-linejoin="round"/>
<path d="M16.3813 28.5688C16.8924 28.5688 17.3066 28.1576 17.3066 27.6503C17.3066 27.1431 16.8924 26.7319 16.3813 26.7319C15.8703 26.7319 15.4561 27.1431 15.4561 27.6503C15.4561 28.1576 15.8703 28.5688 16.3813 28.5688Z" fill="black"/>
<path d="M24.0571 13.4843C24.5681 13.4843 24.9824 13.0731 24.9824 12.5659C24.9824 12.0586 24.5681 11.6475 24.0571 11.6475C23.5461 11.6475 23.1318 12.0586 23.1318 12.5659C23.1318 13.0731 23.5461 13.4843 24.0571 13.4843Z" fill="black"/>
</svg>
